<svg xmlns="http://www.w3.org/2000/svg" width="24" height="24" viewBox="0 0 1500 1500" fill="#06b6d4">
  <path d="M 475.7 1024.3 L 475.7 1258.2 L 709.6 1258.2 L 709.6 1024.3 L 1042.7 1024.3 C 1102.7 1024.3 1154.9 999.9 1194.4 960.8 C 1233.6 921.6 1257.9 869 1257.9 809.1 L 1257.9 457 C 1257.9 397 1233.6 344.8 1194.4 305.3 C 1155.2 266.1 1102.7 241.8 1042.7 241.8 L 690.9 241.8 C 631 241.8 578.7 266.1 539.2 305.3 C 499.7 344.5 475.7 397 475.7 457 L 475.7 790.1 L 7.9 790.1 L 7.9 1024 L 475.7 1024 Z M 241.8 790.4 L 241.8 457 C 241.8 333.5 292.2 221.3 372.7 138.8 C 455.2 58.3 567.4 7.9 690.9 7.9 L 1042.7 7.9 C 1166.2 7.9 1278.4 58.3 1360.9 138.8 C 1441.7 221.3 1492.1 333.5 1492.1 457 L 1492.1 808.8 C 1492.1 932.3 1441.7 1044.5 1361.2 1127 C 1279 1207.4 1166.5 1257.9 1043 1257.9 L 709.6 1257.9 L 709.6 1492.1 L 475.7 1492.1 L 475.7 1258.2 L 241.8 1258.2 Z M 938.2 475.7 L 796 475.7 C 773.4 475.7 751.2 485.2 736 501.8 C 719.1 516.7 709.9 539.2 709.9 561.8 L 709.9 790.1 L 938.2 790.1 C 960.8 790.1 983 780.6 998.2 764 C 1015.1 749.1 1024.3 726.5 1024.3 704 L 1024.3 561.8 C 1024.3 539.2 1014.8 517 998.2 501.8 C 983 485.2 960.5 475.7 938.2 475.7 Z"/>
</svg>
