<svg xmlns="http://www.w3.org/2000/svg" width="24" height="24" viewBox="0 0 32 32">
  <circle cx="16" cy="16" r="16" fill="#2775CA"/>
  <path fill="#fff" d="M20.4 18.1c0-2.1-1.3-2.8-3.8-3.1-1.8-.3-2.2-.7-2.2-1.5s.7-1.3 1.8-1.3c1 0 1.7.4 2 1.2.1.1.2.2.3.2h.7c.2 0 .3-.1.3-.3v-.1c-.3-1.1-1.2-2-2.4-2.2V9.7c0-.2-.1-.3-.3-.3h-.7c-.2 0-.3.1-.3.3V11c-1.6.2-2.6 1.3-2.6 2.6 0 2 1.2 2.7 3.7 3 1.9.3 2.3.8 2.3 1.6 0 .9-.8 1.5-1.9 1.5-1.5 0-2-.6-2.2-1.4 0-.1-.2-.2-.3-.2h-.7c-.2 0-.3.1-.3.3v.1c.3 1.3 1.1 2.2 2.8 2.5v1.3c0 .2.1.3.3.3h.7c.2 0 .3-.1.3-.3V21c1.6-.3 2.7-1.3 2.7-2.9z"/>
  <path fill="#fff" d="M12.8 24.6c-4.7-1.7-7.1-6.9-5.5-11.5 .8-2.3 2.7-4.2 5-5V6.5c-3.4.9-6.1 3.5-7.2 6.9-1.7 5.5 1.4 11.4 6.9 13.1.6.2 1.2.3 1.8.4v-1.7c-.3-.1-.7-.2-1-.6zM19.2 6.5v1.7c.3.1.7.2 1 .4 4.7 1.7 7.1 6.9 5.5 11.5-.8 2.3-2.7 4.2-5 5v1.7c3.4-.9 6.1-3.5 7.2-6.9 1.7-5.5-1.4-11.4-6.9-13.1-.6-.1-1.2-.2-1.8-.3z"/>
</svg>
