<svg xmlns="http://www.w3.org/2000/svg" width="24" height="24" viewBox="0 0 339.43 295.27">
  <path fill="#50AF95" d="M62.15 1.45l-61.89 130a2.52 2.52 0 001.17 3.22l167.47 88.17a2.52 2.52 0 002.33 0l167.47-88.17a2.52 2.52 0 001.17-3.22l-61.89-130a2.5 2.5 0 00-2.27-1.45H64.41a2.5 2.5 0 00-2.26 1.45z"/>
  <path fill="#fff" d="M191.19 144.8v0c-1.2.09-7.4.46-21.23.46-11 0-18.81-.33-21.55-.46v0c-42.51-1.87-74.24-9.27-74.24-18.13s31.73-16.25 74.24-18.15v28.91c2.78.2 10.74.67 21.74.67 13.2 0 19.81-.55 21-.66v-28.9c42.42 1.89 74.08 9.29 74.08 18.13s-31.65 16.24-74.08 18.12zm0-39.25V79.68h59.2V40.23H89.21v39.45h59.19v25.86c-48.11 2.17-84.22 11.73-84.22 23.16s36.11 21 84.22 23.16v82.9h42.78v-82.93c48-2.17 84-11.72 84-23.13s-36.06-21-84-23.16z"/>
</svg>
